<?xml version="1.0" encoding="UTF-8"?>
<!DOCTYPE svg PUBLIC "-//W3C//DTD SVG 1.1//EN" "http://www.w3.org/Graphics/SVG/1.1/DTD/svg11.dtd">
<svg xmlns="http://www.w3.org/2000/svg" version="1.1" width="3199px" height="3199px" style="shape-rendering:geometricPrecision; text-rendering:geometricPrecision; image-rendering:optimizeQuality; fill-rule:evenodd; clip-rule:evenodd" xmlns:xlink="http://www.w3.org/1999/xlink">
<g><path style="opacity:0.994" fill="white" d="M 1335.5,346.5 C 1339.18,346.335 1342.85,346.501 1346.5,347C 1353.78,349.973 1360.78,353.473 1367.5,357.5C 1562.16,472.167 1757.16,586.334 1952.5,700C 2077.86,772.344 2202.86,845.177 2327.5,918.5C 2350.12,931.146 2373.12,943.313 2396.5,955C 2400.7,957.567 2403.87,961.067 2406,965.5C 2406.67,1098.17 2406.67,1230.83 2406,1363.5C 2405.44,1364.02 2404.77,1364.36 2404,1364.5C 2036.6,1141.21 1669.1,918.048 1301.5,695C 1297.4,692.859 1293.4,693.025 1289.5,695.5C 1258.5,719.667 1227.5,743.833 1196.5,768C 1220,783.924 1244.34,798.59 1269.5,812C 1270.5,813 1271.5,814 1272.5,815C 1526.83,966.163 1780.83,1117.83 2034.5,1270C 2155.2,1341.68 2275.87,1413.35 2396.5,1485C 2400.36,1488.2 2403.53,1492.03 2406,1496.5C 2406.67,1730.83 2406.67,1965.17 2406,2199.5C 2404.79,2202.76 2402.96,2205.59 2400.5,2208C 2342.67,2241.75 2285,2275.75 2227.5,2310C 2220.53,2312.37 2213.86,2311.7 2207.5,2308C 2109.77,2245.94 2011.77,2184.27 1913.5,2123C 1900.66,2115.08 1887.66,2107.41 1874.5,2100C 1859.54,2089.52 1844.21,2079.52 1828.5,2070C 1802.67,2053.92 1776.67,2038.08 1750.5,2022.5C 1749.71,2021.76 1749.05,2020.92 1748.5,2020C 1638.55,1952.36 1528.88,1884.36 1419.5,1816C 1414.08,1812.58 1409.24,1808.41 1405,1803.5C 1404.03,1801.61 1403.36,1799.61 1403,1797.5C 1402.5,1674.5 1402.33,1551.5 1402.5,1428.5C 1405.02,1428.76 1407.35,1429.59 1409.5,1431C 1618,1561.5 1826.5,1692 2035,1822.5C 2036.65,1768.21 2036.98,1713.88 2036,1659.5C 2035.79,1654.57 2033.62,1650.74 2029.5,1648C 1551,1356.91 1072.33,1066.08 593.5,775.5C 629.809,753.005 666.809,731.505 704.5,711C 770.974,671.591 837.974,632.924 905.5,595C 906.981,594.02 908.315,592.853 909.5,591.5C 1051.56,509.806 1193.56,428.14 1335.5,346.5 Z"/></g>
<g><path style="opacity:0.994" fill="white" d="M 474.5,886.5 C 480.647,885.812 486.314,887.145 491.5,890.5C 732.959,1042.4 974.959,1193.57 1217.5,1344C 1238.1,1357.76 1259.1,1370.93 1280.5,1383.5C 1285.09,1386.71 1289.59,1390.04 1294,1393.5C 1294.86,1395.09 1295.53,1396.75 1296,1398.5C 1296.83,1522.19 1296.66,1645.85 1295.5,1769.5C 1291.44,1767.97 1287.44,1766.14 1283.5,1764C 1076.58,1634.63 869.749,1505.13 663,1375.5C 662.333,1430.17 662.333,1484.83 663,1539.5C 664.119,1544.24 666.619,1548.07 670.5,1551C 693.332,1565.58 716.332,1579.92 739.5,1594C 961.368,1727.43 1182.7,1861.59 1403.5,1996.5C 1624.9,2130.19 1845.9,2264.36 2066.5,2399C 2080.04,2405.59 2092.71,2413.43 2104.5,2422.5C 2103.25,2424.46 2101.59,2425.96 2099.5,2427C 2063.14,2447.51 2027.14,2468.51 1991.5,2490C 1968.8,2502.2 1946.47,2515.03 1924.5,2528.5C 1766.18,2618.66 1608.51,2709.82 1451.5,2802C 1422.72,2818.63 1393.72,2834.96 1364.5,2851C 1360.5,2851.67 1356.5,2851.67 1352.5,2851C 1347.17,2848.33 1341.83,2845.67 1336.5,2843C 1148.66,2732.91 960.664,2623.08 772.5,2513.5C 639.057,2436.57 505.724,2359.4 372.5,2282C 346.334,2265.58 319.334,2250.75 291.5,2237.5C 291.167,2102.5 291.5,1967.5 292.5,1832.5C 660.657,2055.99 1028.82,2279.32 1397,2502.5C 1400.46,2503.55 1403.96,2503.72 1407.5,2503C 1420.9,2494.75 1433.24,2485.25 1444.5,2474.5C 1464.33,2459.83 1484,2444.99 1503.5,2430C 1465.29,2405.47 1426.29,2382.14 1386.5,2360C 1385.5,2359 1384.5,2358 1383.5,2357C 1172.47,2231.82 961.803,2106.16 751.5,1980C 603.429,1891.97 455.429,1803.97 307.5,1716C 299.867,1711.9 294.7,1705.73 292,1697.5C 291.333,1464.83 291.333,1232.17 292,999.5C 293.421,995.262 295.921,991.762 299.5,989C 357.861,954.822 416.194,920.655 474.5,886.5 Z"/></g>
</svg>
