<?xml version="1.0" encoding="UTF-8"?>
<!DOCTYPE svg PUBLIC "-//W3C//DTD SVG 1.1//EN" "http://www.w3.org/Graphics/SVG/1.1/DTD/svg11.dtd">
<svg xmlns="http://www.w3.org/2000/svg" version="1.1" width="3284px" height="985px" style="shape-rendering:geometricPrecision; text-rendering:geometricPrecision; image-rendering:optimizeQuality; fill-rule:evenodd; clip-rule:evenodd" xmlns:xlink="http://www.w3.org/1999/xlink">
<g><path style="opacity:0.993" fill="currentColor" d="M 3070.5,89.5 C 3123.5,89.5 3176.5,89.5 3229.5,89.5C 3192.94,298.519 3156.27,507.519 3119.5,716.5C 3066.5,716.833 3013.5,716.5 2960.5,715.5C 2963.89,699.24 2966.89,682.907 2969.5,666.5C 2966.73,666.421 2964.06,666.921 2961.5,668C 2918.2,715.112 2864.53,734.446 2800.5,726C 2738.35,717.178 2697.52,683.011 2678,623.5C 2660.19,542.983 2670.86,466.316 2710,393.5C 2740.66,337.843 2786.16,300.01 2846.5,280C 2884.65,268.446 2922.65,268.78 2960.5,281C 2986.54,290.874 3006.21,308.041 3019.5,332.5C 3022.5,333.833 3025.5,333.833 3028.5,332.5C 3042.82,251.56 3056.82,170.56 3070.5,89.5 Z M 2929.5,404.5 C 2973.02,403.194 2998.85,423.861 3007,466.5C 3009.85,505.281 2997.68,538.448 2970.5,566C 2944.66,590.277 2914.33,598.944 2879.5,592C 2851.44,582.936 2835.28,563.77 2831,534.5C 2827.75,486.851 2845.25,449.018 2883.5,421C 2897.77,412.191 2913.1,406.691 2929.5,404.5 Z"/></g>
<g><path style="opacity:0.992" fill="currentColor" d="M 297.5,269.5 C 341.83,266.761 384.83,272.928 426.5,288C 458.171,300.013 482.004,320.846 498,350.5C 506.827,371.757 509.327,393.757 505.5,416.5C 458.478,416.231 411.478,415.231 364.5,413.5C 366.445,392.896 357.778,378.73 338.5,371C 316.185,363.719 293.851,363.719 271.5,371C 254.94,376.894 243.773,388.06 238,404.5C 235.794,416.59 240.294,425.09 251.5,430C 261.156,433.914 271.156,436.581 281.5,438C 315.246,441.749 348.912,446.083 382.5,451C 412.416,455.41 439.749,466.076 464.5,483C 491.352,506.885 501.519,536.718 495,572.5C 485.553,625.924 457.386,666.091 410.5,693C 359.178,719.833 304.511,732.333 246.5,730.5C 207.423,731.987 169.756,725.487 133.5,711C 74.144,684.135 49.4773,638.302 59.5,573.5C 104.5,573.5 149.5,573.5 194.5,573.5C 190.883,602.726 203.216,621.559 231.5,630C 258.753,637.638 285.087,635.304 310.5,623C 325.078,614.528 333.411,601.861 335.5,585C 333.96,574.118 327.96,566.784 317.5,563C 311.589,561.022 305.589,559.355 299.5,558C 266.153,554.132 232.82,550.132 199.5,546C 171.411,542.195 145.411,532.862 121.5,518C 103.937,504.715 93.1036,487.215 89,465.5C 83.1391,394.051 110.972,340.217 172.5,304C 211.693,283.287 253.36,271.787 297.5,269.5 Z"/></g>
<g><path style="opacity:0.993" fill="currentColor" d="M 888.5,271.5 C 982.673,272.478 1036.51,319.478 1050,412.5C 1056.28,491.048 1038.28,563.382 996,629.5C 967.45,670.717 929.617,699.884 882.5,717C 847.017,728.446 811.017,730.446 774.5,723C 741.382,714.872 716.716,695.872 700.5,666C 697.743,665.416 695.077,665.75 692.5,667C 677.794,747.736 663.46,828.569 649.5,909.5C 596.833,909.5 544.167,909.5 491.5,909.5C 528.059,700.48 564.726,491.48 601.5,282.5C 654.504,282.167 707.504,282.5 760.5,283.5C 757.114,299.761 754.114,316.095 751.5,332.5C 753.857,332.663 756.19,332.497 758.5,332C 793.149,293.175 836.483,273.009 888.5,271.5 Z M 812.5,404.5 C 856.494,403.339 882.327,424.339 890,467.5C 892.338,521.012 870.171,560.512 823.5,586C 803.493,594.806 782.827,596.806 761.5,592C 734.078,582.564 718.245,563.398 714,534.5C 710.686,485.3 729.186,446.8 769.5,419C 783.054,411.427 797.387,406.594 812.5,404.5 Z"/></g>
<g><path style="opacity:0.993" fill="currentColor" d="M 1315.5,271.5 C 1374.06,269.594 1415.73,294.927 1440.5,347.5C 1443.43,348.484 1446.43,348.817 1449.5,348.5C 1453.06,326.555 1457.06,304.722 1461.5,283C 1513.83,282.5 1566.17,282.333 1618.5,282.5C 1593.92,426.964 1568.59,571.297 1542.5,715.5C 1489.5,716.667 1436.5,716.833 1383.5,716C 1387.55,695.537 1391.55,675.037 1395.5,654.5C 1393.24,653.353 1390.9,653.186 1388.5,654C 1336.08,719.36 1269.08,741.36 1187.5,720C 1138.36,704.19 1106.86,671.357 1093,621.5C 1077.41,544.61 1087.08,470.943 1122,400.5C 1148.2,348.299 1188.03,310.466 1241.5,287C 1265.43,277.648 1290.1,272.482 1315.5,271.5 Z M 1345.5,404.5 C 1371.87,402.333 1393.37,411.333 1410,431.5C 1421.21,448.852 1425.54,467.852 1423,488.5C 1417.67,534.79 1394.17,567.957 1352.5,588C 1327.83,597.266 1303.5,596.599 1279.5,586C 1256.65,570.979 1245.65,549.646 1246.5,522C 1247.93,471.092 1271.26,434.425 1316.5,412C 1326.01,408.374 1335.68,405.874 1345.5,404.5 Z"/></g>
<g><path style="opacity:0.993" fill="currentColor" d="M 1909.5,271.5 C 1948.95,270.491 1986.95,277.325 2023.5,292C 2088.34,322.805 2119.01,374.305 2115.5,446.5C 2065.84,452.24 2016.18,457.906 1966.5,463.5C 1964.2,429.029 1946.2,407.862 1912.5,400C 1885.13,396.459 1860.79,403.459 1839.5,421C 1800.93,456.385 1786.09,499.885 1795,551.5C 1805.26,583.252 1827.09,599.585 1860.5,600.5C 1899.33,597.672 1928.83,579.672 1949,546.5C 1951.07,543.029 1952.57,539.362 1953.5,535.5C 2001.56,541.485 2049.56,547.985 2097.5,555C 2069.36,636.931 2013.69,690.265 1930.5,715C 1875.08,730.411 1819.41,731.411 1763.5,718C 1686.05,695.214 1642.55,643.714 1633,563.5C 1628.61,474.963 1658.44,400.463 1722.5,340C 1776.75,295.522 1839.09,272.689 1909.5,271.5 Z"/></g>
<g><path style="opacity:0.993" fill="currentColor" d="M 2426.5,271.5 C 2471.37,269.973 2513.71,279.473 2553.5,300C 2601.67,329.124 2628.51,371.958 2634,428.5C 2636.67,466.849 2632.67,504.516 2622,541.5C 2516.71,543.497 2411.21,544.163 2305.5,543.5C 2305.19,569.701 2315.19,590.868 2335.5,607C 2367.92,622.893 2399.92,621.893 2431.5,604C 2436.5,600.333 2441.5,596.667 2446.5,593C 2453.41,585.598 2460.08,578.098 2466.5,570.5C 2510.18,579.169 2553.85,587.836 2597.5,596.5C 2585.11,625.406 2566.44,649.572 2541.5,669C 2495.99,702.176 2444.99,721.176 2388.5,726C 2341.42,731.288 2295.76,725.622 2251.5,709C 2181.06,676.684 2146.06,621.517 2146.5,543.5C 2148.19,443.918 2190.52,367.418 2273.5,314C 2321,286.879 2372,272.712 2426.5,271.5 Z M 2401.5,381.5 C 2443.18,377.711 2468.68,396.044 2478,436.5C 2478.5,443.492 2478.67,450.492 2478.5,457.5C 2425.5,458.039 2372.5,458.372 2319.5,458.5C 2329.8,426.711 2349.8,403.211 2379.5,388C 2386.81,385.281 2394.14,383.114 2401.5,381.5 Z"/></g>
</svg>
