<?xml version="1.0" encoding="UTF-8"?>
<!DOCTYPE svg PUBLIC "-//W3C//DTD SVG 1.1//EN" "http://www.w3.org/Graphics/SVG/1.1/DTD/svg11.dtd">
<svg xmlns="http://www.w3.org/2000/svg" fill="currentColor" version="1.1" width="225px" height="225px" style="shape-rendering:geometricPrecision; text-rendering:geometricPrecision; image-rendering:optimizeQuality; fill-rule:evenodd; clip-rule:evenodd" xmlns:xlink="http://www.w3.org/1999/xlink">
<g><path style="opacity:1" fill="#fdfdfd" d="M -0.5,-0.5 C 32.8333,-0.5 66.1667,-0.5 99.5,-0.5C 53.5412,7.25193 22.0412,32.9186 5,76.5C 2.72634,84.1978 0.89301,91.8644 -0.5,99.5C -0.5,66.1667 -0.5,32.8333 -0.5,-0.5 Z"/></g>
<g><path style="opacity:1" fill="#040404" d="M 99.5,-0.5 C 105.5,-0.5 111.5,-0.5 117.5,-0.5C 166.941,4.42481 200.775,30.0915 219,76.5C 221.272,84.1812 223.105,91.8478 224.5,99.5C 224.5,105.5 224.5,111.5 224.5,117.5C 219.792,166.061 194.792,199.561 149.5,218C 138.889,221.152 128.222,223.319 117.5,224.5C 111.5,224.5 105.5,224.5 99.5,224.5C 54.5879,216.776 23.4212,191.776 6,149.5C 2.84763,138.889 0.680966,128.222 -0.5,117.5C -0.5,111.5 -0.5,105.5 -0.5,99.5C 0.89301,91.8644 2.72634,84.1978 5,76.5C 22.0412,32.9186 53.5412,7.25193 99.5,-0.5 Z"/></g>
<g><path style="opacity:1" fill="#fcfcfc" d="M 117.5,-0.5 C 153.167,-0.5 188.833,-0.5 224.5,-0.5C 224.5,32.8333 224.5,66.1667 224.5,99.5C 223.105,91.8478 221.272,84.1812 219,76.5C 200.775,30.0915 166.941,4.42481 117.5,-0.5 Z"/></g>
<g><path style="opacity:1" fill="#fdfdfd" d="M 98.5,14.5 C 145.052,11.6111 179.218,30.6111 201,71.5C 218.178,116.618 209.011,155.451 173.5,188C 171.333,189.5 169.167,191 167,192.5C 135.667,149.167 104.333,105.833 73,62.5C 67.8787,58.1246 63.5454,58.7913 60,64.5C 59.5,102.832 59.3333,141.165 59.5,179.5C 64.5,179.5 69.5,179.5 74.5,179.5C 74.3334,149.831 74.5,120.165 75,90.5C 101.167,126.833 127.333,163.167 153.5,199.5C 108.28,218.739 69.1129,210.073 36,173.5C 14.3601,144.661 9.02675,112.995 20,78.5C 34.7631,43.0522 60.9298,21.7189 98.5,14.5 Z"/></g>
<g><path style="opacity:1" fill="#000000" d="M 149.5,60.5 C 154.167,60.5 158.833,60.5 163.5,60.5C 163.5,89.8333 163.5,119.167 163.5,148.5C 158.833,148.5 154.167,148.5 149.5,148.5C 149.5,119.167 149.5,89.8333 149.5,60.5 Z"/></g>
<g><path style="opacity:1" fill="#1d1d1d" d="M 149.5,60.5 C 154.305,59.5128 159.305,59.1795 164.5,59.5C 164.5,89.5 164.5,119.5 164.5,149.5C 159.305,149.821 154.305,149.487 149.5,148.5C 154.167,148.5 158.833,148.5 163.5,148.5C 163.5,119.167 163.5,89.8333 163.5,60.5C 158.833,60.5 154.167,60.5 149.5,60.5 Z"/></g>
<g><path style="opacity:1" fill="#fcfcfc" d="M -0.5,117.5 C 0.680966,128.222 2.84763,138.889 6,149.5C 23.4212,191.776 54.5879,216.776 99.5,224.5C 66.1667,224.5 32.8333,224.5 -0.5,224.5C -0.5,188.833 -0.5,153.167 -0.5,117.5 Z"/></g>
<g><path style="opacity:1" fill="#fbfbfb" d="M 224.5,117.5 C 224.5,153.167 224.5,188.833 224.5,224.5C 188.833,224.5 153.167,224.5 117.5,224.5C 128.222,223.319 138.889,221.152 149.5,218C 194.792,199.561 219.792,166.061 224.5,117.5 Z"/></g>
</svg>
