<?xml version="1.0" encoding="UTF-8"?>
<!DOCTYPE svg PUBLIC "-//W3C//DTD SVG 1.1//EN" "http://www.w3.org/Graphics/SVG/1.1/DTD/svg11.dtd">
<svg xmlns="http://www.w3.org/2000/svg" version="1.1" width="114px" height="149px" style="shape-rendering:geometricPrecision; text-rendering:geometricPrecision; image-rendering:optimizeQuality; fill-rule:evenodd; clip-rule:evenodd" xmlns:xlink="http://www.w3.org/1999/xlink">
<g><path style="opacity:1" fill="currentColor" d="M 50.5,2.5 C 48.1617,4.03954 45.4951,4.70621 42.5,4.5C 44.9052,3.2318 47.5718,2.56513 50.5,2.5 Z"/></g>
<g><path style="opacity:1" fill="currentColor" d="M 50.5,2.5 C 56.1764,2.33391 61.8431,2.50058 67.5,3C 72.995,3.77297 77.995,5.6063 82.5,8.5C 83.5524,10.6551 82.8857,10.9884 80.5,9.5C 79.7492,10.376 79.2492,11.376 79,12.5C 78.6667,12.1667 78.3333,11.8333 78,11.5C 76.872,13.3453 76.372,15.3453 76.5,17.5C 75.325,17.281 74.325,17.6143 73.5,18.5C 74.5498,19.4288 74.5498,20.0954 73.5,20.5C 71.2362,19.7814 68.9029,19.448 66.5,19.5C 50.3851,17.4261 36.7185,22.0928 25.5,33.5C 23.2407,34.344 22.2407,36.0107 22.5,38.5C 22.2041,40.403 21.5375,42.0697 20.5,43.5C 19.8826,43.6107 19.3826,43.944 19,44.5C 19,43.1667 19,41.8333 19,40.5C 15.5092,43.439 11.6759,44.6057 7.5,44C 6.33333,44.5 5.5,45.3333 5,46.5C 4.82527,43.8428 4.99194,41.1761 5.5,38.5C 7.73654,31.0212 11.7365,24.6878 17.5,19.5C 20.0892,18.5806 22.0892,16.914 23.5,14.5C 23.5,13.8333 23.8333,13.5 24.5,13.5C 26.0269,13.573 27.0269,12.9063 27.5,11.5C 29.0269,11.573 30.0269,10.9063 30.5,9.5C 33.9991,6.75394 37.9991,5.08727 42.5,4.5C 45.4951,4.70621 48.1617,4.03954 50.5,2.5 Z"/></g>
<g><path style="opacity:1" fill="currentColor" d="M 30.5,9.5 C 30.0269,10.9063 29.0269,11.573 27.5,11.5C 27.9731,10.0937 28.9731,9.42702 30.5,9.5 Z"/></g>
<g><path style="opacity:1" fill="currentColor" d="M 82.5,8.5 C 83.4916,8.32842 84.1583,8.66175 84.5,9.5C 85.4731,11.0683 85.6397,12.735 85,14.5C 83.6667,16.5 82.3333,18.5 81,20.5C 78.6194,21.435 76.1194,21.7683 73.5,21.5C 73.5,21.1667 73.5,20.8333 73.5,20.5C 74.5498,20.0954 74.5498,19.4288 73.5,18.5C 74.325,17.6143 75.325,17.281 76.5,17.5C 76.372,15.3453 76.872,13.3453 78,11.5C 78.3333,11.8333 78.6667,12.1667 79,12.5C 79.2492,11.376 79.7492,10.376 80.5,9.5C 82.8857,10.9884 83.5524,10.6551 82.5,8.5 Z"/></g>
<g><path style="opacity:1" fill="currentColor" d="M 27.5,11.5 C 27.0269,12.9063 26.0269,13.573 24.5,13.5C 24.9731,12.0937 25.9731,11.427 27.5,11.5 Z"/></g>
<g><path style="opacity:1" fill="currentColor" d="M 84.5,9.5 C 88.0246,10.7589 91.0246,12.7589 93.5,15.5C 93.631,16.2389 93.4643,16.9056 93,17.5C 91.9887,16.6634 90.8221,16.33 89.5,16.5C 87.7994,19.9247 86.6327,23.5913 86,27.5C 85.3292,26.7476 84.4959,26.4142 83.5,26.5C 83.0269,25.0937 82.0269,24.427 80.5,24.5C 77.9823,23.7362 75.649,22.7362 73.5,21.5C 76.1194,21.7683 78.6194,21.435 81,20.5C 82.3333,18.5 83.6667,16.5 85,14.5C 85.6397,12.735 85.4731,11.0683 84.5,9.5 Z"/></g>
<g><path style="opacity:1" fill="currentColor" d="M 23.5,14.5 C 22.0892,16.914 20.0892,18.5806 17.5,19.5C 18.9108,17.086 20.9108,15.4194 23.5,14.5 Z"/></g>
<g><path style="opacity:1" fill="currentColor" d="M 66.5,19.5 C 68.9029,19.448 71.2362,19.7814 73.5,20.5C 73.5,20.8333 73.5,21.1667 73.5,21.5C 70.9327,21.2785 68.5994,20.6118 66.5,19.5 Z"/></g>
<g><path style="opacity:1" fill="currentColor" d="M 93.5,15.5 C 95.1667,16.5 96.5,17.8333 97.5,19.5C 95.6532,23.3585 93.6532,27.1918 91.5,31C 92.7119,32.1068 92.3786,32.6068 90.5,32.5C 88.1415,30.4707 85.8082,28.4707 83.5,26.5C 84.4959,26.4142 85.3292,26.7476 86,27.5C 86.6327,23.5913 87.7994,19.9247 89.5,16.5C 90.8221,16.33 91.9887,16.6634 93,17.5C 93.4643,16.9056 93.631,16.2389 93.5,15.5 Z"/></g>
<g><path style="opacity:1" fill="currentColor" d="M 80.5,24.5 C 82.0269,24.427 83.0269,25.0937 83.5,26.5C 81.9731,26.573 80.9731,25.9063 80.5,24.5 Z"/></g>
<g><path style="opacity:1" fill="currentColor" d="M 97.5,19.5 C 103.64,24.1333 107.474,30.1333 109,37.5C 105.744,39.8793 102.244,41.8793 98.5,43.5C 95.8086,39.8151 93.1419,36.1484 90.5,32.5C 92.3786,32.6068 92.7119,32.1068 91.5,31C 93.6532,27.1918 95.6532,23.3585 97.5,19.5 Z"/></g>
<g><path style="opacity:1" fill="currentColor" d="M 25.5,33.5 C 24.8897,35.4341 23.8897,37.1007 22.5,38.5C 22.2407,36.0107 23.2407,34.344 25.5,33.5 Z"/></g>
<g><path style="opacity:1" fill="currentColor" d="M 73.5,37.5 C 68.0248,36.9193 62.8582,37.5859 58,39.5C 56.9887,38.6634 55.8221,38.33 54.5,38.5C 60.69,35.1265 67.0233,34.7931 73.5,37.5 Z"/></g>
<g><path style="opacity:1" fill="currentColor" d="M 73.5,37.5 C 74.791,37.2627 75.791,37.596 76.5,38.5C 78.1456,40.6101 79.979,42.6101 82,44.5C 82.9138,43.3463 83.7471,43.513 84.5,45C 83.7213,46.9859 82.0546,48.8193 79.5,50.5C 77.5914,49.6518 75.5914,49.3184 73.5,49.5C 69.8648,48.8857 66.1981,48.5524 62.5,48.5C 64.6979,47.8347 67.0312,47.1681 69.5,46.5C 69.2907,45.914 68.9574,45.414 68.5,45C 70.3757,42.8628 72.3757,40.8628 74.5,39C 73.944,38.6174 73.6107,38.1174 73.5,37.5 Z"/></g>
<g><path style="opacity:1" fill="currentColor" d="M 49.5,41.5 C 48.8333,42.8333 47.8333,43.8333 46.5,44.5C 46.5,42.5 47.5,41.5 49.5,41.5 Z"/></g>
<g><path style="opacity:1" fill="currentColor" d="M 73.5,37.5 C 73.6107,38.1174 73.944,38.6174 74.5,39C 72.3757,40.8628 70.3757,42.8628 68.5,45C 68.9574,45.414 69.2907,45.914 69.5,46.5C 67.0312,47.1681 64.6979,47.8347 62.5,48.5C 55.607,50.2786 49.607,53.6119 44.5,58.5C 43.5233,55.7131 43.19,52.7131 43.5,49.5C 43.7497,47.326 44.7497,45.6594 46.5,44.5C 47.8333,43.8333 48.8333,42.8333 49.5,41.5C 50.6594,39.7497 52.326,38.7497 54.5,38.5C 55.8221,38.33 56.9887,38.6634 58,39.5C 62.8582,37.5859 68.0248,36.9193 73.5,37.5 Z"/></g>
<g><path style="opacity:1" fill="currentColor" d="M 76.5,38.5 C 85.1532,41.5034 89.6532,47.5034 90,56.5C 89.6924,57.3081 89.1924,57.9747 88.5,58.5C 84.1992,54.1891 79.1992,51.1891 73.5,49.5C 75.5914,49.3184 77.5914,49.6518 79.5,50.5C 82.0546,48.8193 83.7213,46.9859 84.5,45C 83.7471,43.513 82.9138,43.3463 82,44.5C 79.979,42.6101 78.1456,40.6101 76.5,38.5 Z"/></g>
<g><path style="opacity:1" fill="currentColor" d="M 43.5,49.5 C 43.19,52.7131 43.5233,55.7131 44.5,58.5C 44.44,59.0431 44.1067,59.3764 43.5,59.5C 42.1944,56.0202 42.1944,52.6868 43.5,49.5 Z"/></g>
<g><path style="opacity:1" fill="currentColor" d="M 5.5,38.5 C 4.99194,41.1761 4.82527,43.8428 5,46.5C 5.5,45.3333 6.33333,44.5 7.5,44C 11.6759,44.6057 15.5092,43.439 19,40.5C 19,41.8333 19,43.1667 19,44.5C 19.3826,43.944 19.8826,43.6107 20.5,43.5C 20.2785,46.0673 19.6118,48.4006 18.5,50.5C 17.7169,53.7761 16.7169,57.1094 15.5,60.5C 11.7092,60.1834 8.20922,60.1834 5,60.5C 4.80912,62.7078 4.30912,64.7078 3.5,66.5C 2.72546,61.2032 2.39212,55.8699 2.5,50.5C 2.58413,46.1629 3.58413,42.1629 5.5,38.5 Z"/></g>
<g><path style="opacity:1" fill="currentColor" d="M 2.5,50.5 C 2.39212,55.8699 2.72546,61.2032 3.5,66.5C 3.5,67.1667 3.5,67.8333 3.5,68.5C 2.09732,64.9281 1.43066,61.0947 1.5,57C 1.50393,54.6392 1.83726,52.4726 2.5,50.5 Z"/></g>
<g><path style="opacity:1" fill="currentColor" d="M 40.5,57.5 C 41.525,57.8966 41.6917,58.5632 41,59.5C 40.5357,58.9056 40.369,58.2389 40.5,57.5 Z"/></g>
<g><path style="opacity:1" fill="currentColor" d="M 79.5,62.5 C 80.5981,63.397 80.5981,64.2303 79.5,65C 80.624,65.2492 81.624,65.7492 82.5,66.5C 79.378,71.0869 76.7114,75.4202 74.5,79.5C 66.6484,79.8254 58.9818,79.492 51.5,78.5C 54.5184,78.6646 57.5184,78.498 60.5,78C 60.1667,77.6667 59.8333,77.3333 59.5,77C 62.4471,76.8882 63.7804,75.3882 63.5,72.5C 64.552,72.6495 65.552,72.4828 66.5,72C 67.7841,68.3846 70.1174,65.7179 73.5,64C 67.1754,63.5005 60.8421,63.3338 54.5,63.5C 53.209,63.7373 52.209,63.404 51.5,62.5C 61.0111,61.9778 70.3444,61.9778 79.5,62.5 Z"/></g>
<g><path style="opacity:1" fill="currentColor" d="M 18.5,50.5 C 18.5,55.5 18.5,60.5 18.5,65.5C 18.5,67.5 18.5,69.5 18.5,71.5C 15.9556,71.1043 13.7889,71.771 12,73.5C 10,70.8333 8,70.8333 6,73.5C 5.61742,72.944 5.11742,72.6107 4.5,72.5C 3.56552,71.4324 3.23219,70.099 3.5,68.5C 3.5,67.8333 3.5,67.1667 3.5,66.5C 4.30912,64.7078 4.80912,62.7078 5,60.5C 8.20922,60.1834 11.7092,60.1834 15.5,60.5C 16.7169,57.1094 17.7169,53.7761 18.5,50.5 Z"/></g>
<g><path style="opacity:1" fill="currentColor" d="M 51.5,62.5 C 52.209,63.404 53.209,63.7373 54.5,63.5C 56.631,64.3138 58.9644,64.8138 61.5,65C 57.5705,68.9413 53.9039,72.9413 50.5,77C 51.056,77.3826 51.3893,77.8826 51.5,78.5C 43.2576,74.1667 41.591,68.0001 46.5,60C 48.4585,60.0969 50.1252,60.9302 51.5,62.5 Z"/></g>
<g><path style="opacity:1" fill="currentColor" d="M 79.5,62.5 C 89.4505,64.6209 95.1172,70.7875 96.5,81C 96.1674,84.5125 95.0008,87.6792 93,90.5C 87.6625,97.0038 81.8292,103.004 75.5,108.5C 74.7222,107.844 74.0556,107.011 73.5,106C 77.0446,103.912 77.7113,100.746 75.5,96.5C 76.0891,94.6267 75.4224,92.96 73.5,91.5C 70.3469,92.9865 67.3469,94.6532 64.5,96.5C 68.4379,93.0648 72.2712,89.3981 76,85.5C 77.0086,83.9751 77.5086,82.3084 77.5,80.5C 76.209,80.7373 75.209,80.404 74.5,79.5C 76.7114,75.4202 79.378,71.0869 82.5,66.5C 81.624,65.7492 80.624,65.2492 79.5,65C 80.5981,64.2303 80.5981,63.397 79.5,62.5 Z"/></g>
<g><path style="opacity:1" fill="currentColor" d="M 54.5,63.5 C 60.8421,63.3338 67.1754,63.5005 73.5,64C 70.1174,65.7179 67.7841,68.3846 66.5,72C 65.552,72.4828 64.552,72.6495 63.5,72.5C 63.7804,75.3882 62.4471,76.8882 59.5,77C 59.8333,77.3333 60.1667,77.6667 60.5,78C 57.5184,78.498 54.5184,78.6646 51.5,78.5C 51.3893,77.8826 51.056,77.3826 50.5,77C 53.9039,72.9413 57.5705,68.9413 61.5,65C 58.9644,64.8138 56.631,64.3138 54.5,63.5 Z"/></g>
<g><path style="opacity:1" fill="currentColor" d="M 18.5,65.5 C 22.184,74.8654 28.184,82.5321 36.5,88.5C 34.8008,88.6602 33.1341,88.4935 31.5,88C 32.1667,87.6667 32.8333,87.3333 33.5,87C 32.2341,86.6905 31.0674,86.1905 30,85.5C 28.9887,86.3366 27.8221,86.67 26.5,86.5C 26.0724,83.7535 24.4057,82.0868 21.5,81.5C 20.8076,82.0253 20.3076,82.6919 20,83.5C 19.6667,82.1667 19.3333,80.8333 19,79.5C 17.5823,82.001 16.5823,81.6677 16,78.5C 15.6667,79.5 15.3333,80.5 15,81.5C 14.2904,80.0267 13.1238,79.3601 11.5,79.5C 11.9628,82.221 12.6295,84.8877 13.5,87.5C 9.23251,83.3047 6.23251,78.3047 4.5,72.5C 5.11742,72.6107 5.61742,72.944 6,73.5C 8,70.8333 10,70.8333 12,73.5C 13.7889,71.771 15.9556,71.1043 18.5,71.5C 18.5,69.5 18.5,67.5 18.5,65.5 Z"/></g>
<g><path style="opacity:1" fill="currentColor" d="M 36.5,88.5 C 38.2303,89.0256 39.5637,90.0256 40.5,91.5C 40.2914,92.9217 39.7914,94.255 39,95.5C 35.0645,97.4056 32.2312,99.7389 30.5,102.5C 23.9375,98.6096 18.2708,93.6096 13.5,87.5C 12.6295,84.8877 11.9628,82.221 11.5,79.5C 13.1238,79.3601 14.2904,80.0267 15,81.5C 15.3333,80.5 15.6667,79.5 16,78.5C 16.5823,81.6677 17.5823,82.001 19,79.5C 19.3333,80.8333 19.6667,82.1667 20,83.5C 20.3076,82.6919 20.8076,82.0253 21.5,81.5C 24.4057,82.0868 26.0724,83.7535 26.5,86.5C 27.8221,86.67 28.9887,86.3366 30,85.5C 31.0674,86.1905 32.2341,86.6905 33.5,87C 32.8333,87.3333 32.1667,87.6667 31.5,88C 33.1341,88.4935 34.8008,88.6602 36.5,88.5 Z"/></g>
<g><path style="opacity:1" fill="currentColor" d="M 40.5,91.5 C 46.5,95.1667 52.5,98.8333 58.5,102.5C 55.8004,103.257 53.3004,104.591 51,106.5C 49.9505,105.483 48.7839,105.316 47.5,106C 45.2368,107.617 43.2368,109.45 41.5,111.5C 37.5181,108.848 33.8514,105.848 30.5,102.5C 32.2312,99.7389 35.0645,97.4056 39,95.5C 39.7914,94.255 40.2914,92.9217 40.5,91.5 Z"/></g>
<g><path style="opacity:1" fill="currentColor" d="M 75.5,108.5 C 72.8347,111.335 70.3347,114.335 68,117.5C 66.549,119.464 64.7157,120.797 62.5,121.5C 60.5,121.5 58.5,121.5 56.5,121.5C 50.9508,118.944 45.9508,115.61 41.5,111.5C 43.2368,109.45 45.2368,107.617 47.5,106C 48.7839,105.316 49.9505,105.483 51,106.5C 53.3004,104.591 55.8004,103.257 58.5,102.5C 60.1667,100.167 62.1667,98.1667 64.5,96.5C 67.3469,94.6532 70.3469,92.9865 73.5,91.5C 75.4224,92.96 76.0891,94.6267 75.5,96.5C 77.7113,100.746 77.0446,103.912 73.5,106C 74.0556,107.011 74.7222,107.844 75.5,108.5 Z"/></g>
<g><path style="opacity:1" fill="currentColor" d="M 56.5,121.5 C 58.5,121.5 60.5,121.5 62.5,121.5C 60.5,124.167 58.5,124.167 56.5,121.5 Z"/></g>
<g><path style="opacity:1" fill="currentColor" d="M 47.5,127.5 C 55.1667,127.5 62.8333,127.5 70.5,127.5C 70.5,128.833 70.5,130.167 70.5,131.5C 62.8333,131.5 55.1667,131.5 47.5,131.5C 47.5,130.167 47.5,128.833 47.5,127.5 Z"/></g>
<g><path style="opacity:1" fill="currentColor" d="M 48.5,128.5 C 55.5316,128.17 62.5316,128.503 69.5,129.5C 66,129.833 62.5,130.167 59,130.5C 55.0982,130.488 51.5982,129.821 48.5,128.5 Z"/></g>
<g><path style="opacity:1" fill="currentColor" d="M 69.5,132.5 C 69.5,132.833 69.5,133.167 69.5,133.5C 62.0869,132.872 55.0869,133.539 48.5,135.5C 48.1667,135.5 47.8333,135.5 47.5,135.5C 47.5,134.5 47.5,133.5 47.5,132.5C 54.8333,132.5 62.1667,132.5 69.5,132.5 Z"/></g>
<g><path style="opacity:1" fill="currentColor" d="M 69.5,133.5 C 62.9131,135.461 55.9131,136.128 48.5,135.5C 55.0869,133.539 62.0869,132.872 69.5,133.5 Z"/></g>
<g><path style="opacity:1" fill="currentColor" d="M 69.5,132.5 C 70.4345,133.568 70.7678,134.901 70.5,136.5C 62.6484,136.825 54.9818,136.492 47.5,135.5C 47.8333,135.5 48.1667,135.5 48.5,135.5C 55.9131,136.128 62.9131,135.461 69.5,133.5C 69.5,133.167 69.5,132.833 69.5,132.5 Z"/></g>
<g><path style="opacity:1" fill="currentColor" d="M 47.5,137.5 C 55.1667,137.5 62.8333,137.5 70.5,137.5C 67.0221,146.435 60.6888,148.935 51.5,145C 48.6026,143.285 47.2693,140.785 47.5,137.5 Z"/></g>
</svg>
