<?xml version="1.0" encoding="UTF-8"?>
<!DOCTYPE svg PUBLIC "-//W3C//DTD SVG 1.1//EN" "http://www.w3.org/Graphics/SVG/1.1/DTD/svg11.dtd">
<svg xmlns="http://www.w3.org/2000/svg" version="1.1" width="66px" height="82px" style="shape-rendering:geometricPrecision; text-rendering:geometricPrecision; image-rendering:optimizeQuality; fill-rule:evenodd; clip-rule:evenodd" xmlns:xlink="http://www.w3.org/1999/xlink">
<g><path style="opacity:1" fill="currentColor" d="M 57.5,6.5 C 57.7376,8.40435 58.7376,9.73769 60.5,10.5C 61.9654,24.4945 61.7988,38.4945 60,52.5C 50.7912,60.7109 41.2912,68.5442 31.5,76C 29.8876,76.7203 28.3876,76.5536 27,75.5C 26.8238,71.3123 26.3238,67.3123 25.5,63.5C 24.3646,61.7868 22.698,61.1201 20.5,61.5C 19.3646,59.7868 17.698,59.1201 15.5,59.5C 11.0431,58.6883 7.20976,56.6883 4,53.5C 3.50009,39.1705 3.33342,24.8372 3.5,10.5C 4.90632,10.0269 5.57298,9.02694 5.5,7.5C 5.91753,6.77842 6.5842,6.27842 7.5,6C 24.3384,5.17169 41.0051,5.33836 57.5,6.5 Z M 38.5,20.5 C 38.8333,22.5 39.1667,24.5 39.5,26.5C 41.5648,26.5172 43.5648,26.8505 45.5,27.5C 46.4687,28.3094 47.3021,29.3094 48,30.5C 50.3861,40.0554 47.2194,46.722 38.5,50.5C 33.1203,50.6757 27.787,50.3424 22.5,49.5C 21.7095,48.5987 20.7095,47.9321 19.5,47.5C 18.0927,45.6917 16.926,43.6917 16,41.5C 15.0906,35.3877 15.424,29.3877 17,23.5C 21.84,17.7768 28.0067,15.9434 35.5,18C 36.6906,18.6979 37.6906,19.5313 38.5,20.5 Z"/></g>
<g><path style="opacity:0.847" fill="currentColor" d="M 57.5,6.5 C 59.2624,7.26231 60.2624,8.59565 60.5,10.5C 58.7376,9.73769 57.7376,8.40435 57.5,6.5 Z"/></g>
<g><path style="opacity:0.314" fill="currentColor" d="M 5.5,7.5 C 5.57298,9.02694 4.90632,10.0269 3.5,10.5C 3.42702,8.97306 4.09368,7.97306 5.5,7.5 Z"/></g>
<g><path style="opacity:1" fill="currentColor" d="M 35.5,22.5 C 35.5,23.5 35.5,24.5 35.5,25.5C 32.2869,25.19 29.2869,25.5233 26.5,26.5C 21.0349,39.1844 25.0349,43.5177 38.5,39.5C 39.8333,36.8333 39.8333,34.1667 38.5,31.5C 40.5768,28.8808 42.7435,28.8808 45,31.5C 45.8538,35.6251 45.5204,39.6251 44,43.5C 42.786,45.0488 41.286,46.2155 39.5,47C 34.3158,47.8163 29.3158,47.6497 24.5,46.5C 24.0269,45.0937 23.0269,44.427 21.5,44.5C 20.2101,43.9423 19.3768,42.9423 19,41.5C 18.3333,36.1667 18.3333,30.8333 19,25.5C 23.7888,19.1198 29.2888,18.1198 35.5,22.5 Z"/></g>
<g><path style="opacity:0.722" fill="currentColor" d="M 38.5,20.5 C 39.9313,21.7804 40.5979,23.4471 40.5,25.5C 42.698,25.1201 44.3646,25.7868 45.5,27.5C 43.5648,26.8505 41.5648,26.5172 39.5,26.5C 39.1667,24.5 38.8333,22.5 38.5,20.5 Z"/></g>
<g><path style="opacity:0.536" fill="currentColor" d="M 35.5,22.5 C 36.4345,23.5676 36.7678,24.901 36.5,26.5C 33.1667,26.5 29.8333,26.5 26.5,26.5C 29.2869,25.5233 32.2869,25.19 35.5,25.5C 35.5,24.5 35.5,23.5 35.5,22.5 Z"/></g>
<g><path style="opacity:0.115" fill="currentColor" d="M 27.5,29.5 C 30.5,29.5 33.5,29.5 36.5,29.5C 36.5,32.5 36.5,35.5 36.5,38.5C 33.5,38.5 30.5,38.5 27.5,38.5C 27.5,35.5 27.5,32.5 27.5,29.5 Z"/></g>
<g><path style="opacity:1" fill="currentColor" d="M 28.5,30.5 C 30.8333,30.5 33.1667,30.5 35.5,30.5C 35.5,32.8333 35.5,35.1667 35.5,37.5C 33.1667,37.5 30.8333,37.5 28.5,37.5C 28.5,35.1667 28.5,32.8333 28.5,30.5 Z"/></g>
<g><path style="opacity:0.463" fill="currentColor" d="M 21.5,44.5 C 23.0269,44.427 24.0269,45.0937 24.5,46.5C 22.9731,46.573 21.9731,45.9063 21.5,44.5 Z"/></g>
<g><path style="opacity:0.988" fill="currentColor" d="M 19.5,47.5 C 20.7095,47.9321 21.7095,48.5987 22.5,49.5C 20.8212,49.7148 19.8212,49.0481 19.5,47.5 Z"/></g>
<g><path style="opacity:0.466" fill="currentColor" d="M 22.5,49.5 C 27.787,50.3424 33.1203,50.6757 38.5,50.5C 34.0189,51.6484 29.3522,51.8151 24.5,51C 23.5842,50.7216 22.9175,50.2216 22.5,49.5 Z"/></g>
<g><path style="opacity:0.941" fill="currentColor" d="M 15.5,59.5 C 17.698,59.1201 19.3646,59.7868 20.5,61.5C 18.597,61.2041 16.9303,60.5375 15.5,59.5 Z"/></g>
<g><path style="opacity:0.898" fill="currentColor" d="M 20.5,61.5 C 22.698,61.1201 24.3646,61.7868 25.5,63.5C 23.597,63.2041 21.9303,62.5375 20.5,61.5 Z"/></g>
</svg>
