<?xml version="1.0" encoding="UTF-8"?>
<!DOCTYPE svg PUBLIC "-//W3C//DTD SVG 1.1//EN" "http://www.w3.org/Graphics/SVG/1.1/DTD/svg11.dtd">
<svg xmlns="http://www.w3.org/2000/svg" version="1.1" width="564px" height="553px" style="shape-rendering:geometricPrecision; text-rendering:geometricPrecision; image-rendering:optimizeQuality; fill-rule:evenodd; clip-rule:evenodd" xmlns:xlink="http://www.w3.org/1999/xlink">
<g><path style="opacity:1" fill="currentColor" d="M 466.5,4.5 C 460.204,23.7253 453.538,42.7253 446.5,61.5C 444.824,62.1834 444.157,63.5168 444.5,65.5C 405.996,65.1681 367.663,65.5015 329.5,66.5C 299.103,153.357 269.103,240.357 239.5,327.5C 238.5,329.5 237.5,331.5 236.5,333.5C 205.5,333.5 174.5,333.5 143.5,333.5C 143.5,332.167 143.5,330.833 143.5,329.5C 172.829,243.681 202.662,158.014 233,72.5C 234.205,70.4658 234.372,68.4658 233.5,66.5C 207.773,72.3516 183.606,82.0183 161,95.5C 101.777,135.658 68.944,191.658 62.5,263.5C 61.7925,271.858 61.1258,280.358 60.5,289C 60.6387,290.301 61.3054,291.134 62.5,291.5C 72.5239,374.066 114.524,434.233 188.5,472C 181.334,491.332 174.667,510.832 168.5,530.5C 163.33,529.254 158.33,527.42 153.5,525C 78.7708,486.098 30.4375,425.931 8.5,344.5C 8.48232,339.916 7.81566,335.416 6.5,331C 7.239,327.173 7.40567,323.34 7,319.5C 6.66667,321.5 6.33333,323.5 6,325.5C 4.21738,322.108 4.05072,318.608 5.5,315C 3,314.167 2.83333,313 5,311.5C 5.75499,308.697 5.42166,306.03 4,303.5C 3.58605,303.957 3.08605,304.291 2.5,304.5C 2.11823,300.084 1.11823,296.084 -0.5,292.5C -0.5,281.167 -0.5,269.833 -0.5,258.5C 1.89001,228.265 8.72334,198.931 20,170.5C 56.7937,86.2067 119.627,32.2067 208.5,8.5C 214.1,6.41187 218.933,7.41187 223,11.5C 223.577,7.26781 226.077,4.93448 230.5,4.5C 233.063,4.73703 233.063,5.23703 230.5,6C 233.751,9.07541 237.251,9.24208 241,6.5C 242.268,6.61581 243.602,6.94915 245,7.5C 247.74,6.71779 250.574,6.21779 253.5,6C 251.299,4.95682 248.966,4.12349 246.5,3.5C 254.813,2.33493 263.147,2.16826 271.5,3C 273.061,3.31762 274.228,4.15095 275,5.5C 275.974,0.326814 278.474,-0.673186 282.5,2.5C 342.686,0.50905 403.019,-0.157617 463.5,0.5C 463.343,1.87344 463.51,3.20677 464,4.5C 464.687,0.674185 465.52,0.674185 466.5,4.5 Z"/></g>
<g><path style="opacity:1" fill="currentColor" d="M 446.5,61.5 C 446.579,62.9305 446.246,64.2638 445.5,65.5C 406.839,66.4999 368.172,66.8332 329.5,66.5C 367.663,65.5015 405.996,65.1681 444.5,65.5C 444.157,63.5168 444.824,62.1834 446.5,61.5 Z"/></g>
<g><path style="opacity:1" fill="currentColor" d="M 551.5,255.5 C 551.611,272.845 551.277,290.178 550.5,307.5C 547.031,342.075 537.197,374.742 521,405.5C 471.486,492.795 396.653,541.795 296.5,552.5C 282.833,552.5 269.167,552.5 255.5,552.5C 243.887,551.252 232.22,549.419 220.5,547C 255.59,447.653 290.256,348.153 324.5,248.5C 325.339,247.359 326.006,246.026 326.5,244.5C 357.826,243.5 389.16,243.167 420.5,243.5C 394.109,322.005 367.109,400.339 339.5,478.5C 340,478.833 340.5,479.167 341,479.5C 383.92,465.056 419.254,440.056 447,404.5C 495.419,334.387 502.586,260.221 468.5,182C 476.551,156.512 485.384,131.345 495,106.5C 528.683,150.363 547.517,200.03 551.5,255.5 Z"/></g>
<g><path style="opacity:1" fill="currentColor" d="M 439.5,186.5 C 439.5,185.5 439.5,184.5 439.5,183.5C 408.475,183.197 377.475,183.53 346.5,184.5C 361.986,183.167 377.819,182.501 394,182.5C 409.833,182.833 425.667,183.167 441.5,183.5C 441.058,184.739 440.391,185.739 439.5,186.5 Z"/></g>
<g><path style="opacity:1" fill="currentColor" d="M 439.5,186.5 C 436.105,198.686 432.105,210.686 427.5,222.5C 395.839,223.667 364.172,223.833 332.5,223C 337.269,210.193 341.935,197.36 346.5,184.5C 377.475,183.53 408.475,183.197 439.5,183.5C 439.5,184.5 439.5,185.5 439.5,186.5 Z"/></g>
<g><path style="opacity:1" fill="currentColor" d="M 419.5,242.5 C 389.167,242.5 358.833,242.5 328.5,242.5C 327.537,241.637 327.537,240.97 328.5,240.5C 344.24,240.866 360.073,240.866 376,240.5C 390.849,240.501 405.349,241.167 419.5,242.5 Z"/></g>
<g><path style="opacity:1" fill="currentColor" d="M 328.5,242.5 C 358.833,242.5 389.167,242.5 419.5,242.5C 420.167,242.5 420.5,242.833 420.5,243.5C 389.16,243.167 357.826,243.5 326.5,244.5C 326.006,246.026 325.339,247.359 324.5,248.5C 323.599,244.759 324.932,242.759 328.5,242.5 Z"/></g>
<g><path style="opacity:1" fill="currentColor" d="M 551.5,255.5 C 552.166,262.158 552.5,268.992 552.5,276C 552.655,286.707 551.989,297.207 550.5,307.5C 551.277,290.178 551.611,272.845 551.5,255.5 Z"/></g>
<g><path style="opacity:1" fill="currentColor" d="M 62.5,263.5 C 62.5,272.833 62.5,282.167 62.5,291.5C 61.3054,291.134 60.6387,290.301 60.5,289C 61.1258,280.358 61.7925,271.858 62.5,263.5 Z"/></g>
<g><path style="opacity:1" fill="currentColor" d="M -0.5,292.5 C 1.11823,296.084 2.11823,300.084 2.5,304.5C 3.08605,304.291 3.58605,303.957 4,303.5C 5.42166,306.03 5.75499,308.697 5,311.5C 2.83333,313 3,314.167 5.5,315C 4.05072,318.608 4.21738,322.108 6,325.5C 6.33333,323.5 6.66667,321.5 7,319.5C 7.40567,323.34 7.239,327.173 6.5,331C 7.81566,335.416 8.48232,339.916 8.5,344.5C 3.98761,328.091 0.987608,311.425 -0.5,294.5C -0.5,293.833 -0.5,293.167 -0.5,292.5 Z"/></g>
<g><path style="opacity:1" fill="currentColor" d="M 143.5,329.5 C 143.5,330.833 143.5,332.167 143.5,333.5C 174.5,333.5 205.5,333.5 236.5,333.5C 205.004,334.498 173.338,334.832 141.5,334.5C 141.796,332.597 142.463,330.93 143.5,329.5 Z"/></g>
<g><path style="opacity:1" fill="currentColor" d="M 239.5,327.5 C 239.945,330.365 239.278,332.865 237.5,335C 205.331,335.831 173.331,335.664 141.5,334.5C 173.338,334.832 205.004,334.498 236.5,333.5C 237.5,331.5 238.5,329.5 239.5,327.5 Z"/></g>
</svg>
